<svg version="1.1" xmlns="http://www.w3.org/2000/svg" x="0px" y="0px" width="1024px" height="1024px" viewBox="0 0 1024 1024">
	<circle style="fill:#FFFFFF;stroke:#0033AD;stroke-width:64;stroke-miterlimit:10;" cx="512" cy="512" r="450" />

	<path style="fill:#0033AD;" d="M153.716,506.584c-3.384,60.431,41.883,112.163,100.685,115.64c2.114,0,4.232,0,6.347,0
		c59.223,0,107.031-49.123,106.606-109.987c0-60.866-47.804-109.992-107.029-109.556
		C203.636,402.682,156.677,448.329,153.716,506.584z"/>
	<path style="fill:#0033AD;" d="M769.675,401.81c-58.804-3.476-109.572,43.042-112.533,103.467
		c-3.386,60.427,41.881,112.6,100.68,115.64c2.118,0,4.233,0,5.928,0c58.803,0,106.605-49.123,106.605-109.985
		C870.778,453.111,826.357,404.854,769.675,401.81L769.675,401.81z"/>
	<path style="fill:#0033AD;" d="M290.363,337.47c18.187,36.951,54.996,60.428,95.608,60.428
		c58.8,0,106.605-49.125,106.605-109.988c0-16.954-3.809-33.909-11.423-49.561c-26.65-54.341-90.955-76.079-143.415-48.689
		C284.862,217.483,263.708,283.562,290.363,337.47L290.363,337.47z"/>
	<path style="fill:#0033AD;" d="M547.996,227.48c-32.154,50.867-18.613,118.684,30.884,151.725
		c49.497,33.042,115.491,19.129,147.642-31.735c32.152-50.867,18.613-118.684-30.883-151.726
		c-17.344-11.737-37.656-17.825-58.38-17.825C601.299,177.919,567.877,196.613,547.996,227.48z"/>
	<path style="fill:#0033AD;" d="M733.715,686.569c-26.652-54.347-90.955-76.083-143.412-48.696
		c-52.881,27.394-74.038,93.472-47.383,147.371c26.649,54.348,90.951,76.088,143.414,48.697l0,0
		c52.455-26.953,74.024-92.162,47.801-146.506C734.135,687,734.135,687,733.715,686.569z"/>
	<path style="fill:#0033AD;" d="M476.079,796.551c32.149-50.863,18.615-118.678-30.882-152.159
		c-49.497-33.036-115.493-19.122-148.069,31.74c-32.574,50.862-18.611,118.683,30.883,152.157
		c17.348,11.736,37.653,17.825,58.381,17.825C422.775,846.547,456.194,827.853,476.079,796.551z"/>
</svg>
